<mxfile host="app.diagrams.net" modified="2023-03-27T03:11:26.323Z" agent="5.0 (Windows NT 10.0; Win64; x64) AppleWebKit/537.36 (KHTML, like Gecko) Chrome/111.0.0.0 Safari/537.36" etag="wP8zgXOfUuFAOdObt3vy" version="21.0.6" type="github">
  <diagram name="第 1 页" id="9UmWpoSWfHa5oaC1y0oW">
    <mxGraphModel dx="954" dy="576" grid="1" gridSize="10" guides="1" tooltips="1" connect="1" arrows="1" fold="1" page="1" pageScale="1" pageWidth="827" pageHeight="1169" math="0" shadow="0">
      <root>
        <mxCell id="0" />
        <mxCell id="1" parent="0" />
        <mxCell id="e0pzkqqJAxzMXHmGNhIU-4" value="" style="edgeStyle=orthogonalEdgeStyle;rounded=0;orthogonalLoop=1;jettySize=auto;html=1;" edge="1" parent="1" source="e0pzkqqJAxzMXHmGNhIU-2" target="e0pzkqqJAxzMXHmGNhIU-3">
          <mxGeometry relative="1" as="geometry" />
        </mxCell>
        <mxCell id="e0pzkqqJAxzMXHmGNhIU-2" value="录像机" style="shape=image;verticalLabelPosition=bottom;labelBackgroundColor=default;verticalAlign=top;aspect=fixed;imageAspect=0;image=data:image/png,iVBORw0KGgoAAAANSUhEUgAAAdcAAADICAYAAAC6c6s7AAAAAXNSR0IArs4c6QAAGMtJREFUeF7t3QuQJVddx/H/6TuT3SJhtyxIItQmxWOB7O3TQ+JuEiWUgkAgJCEiSICyrBAkUQQNKig+imwVKgImSsAiCRIoq0ClQAyPQECypUXx2oVk+vRdNg6iJgJrQpUBdndmdm7/rTPObO1rlrm3+3T37f7eqlszubfP+Z//59zMb3vmPowEuvT7/XN7vd6LVHWrMeYsETlLVc/2X1eugSozLQIIIIAAAscI7BcRf/3eylf//e75+fm75ubmfhDCypQ5aRzHFxpjLjfGvEBVLy5zbuZCAAEEEEAggMCnVPUuEbkny7JBWfOXEq7W2lcbY15DoJa1LcyDAAIIIFCDwJdV9b1Zln2waO1C4RrH8SuMMa8VkWcWXQjjEUAAAQQQaIjA3SLyLufcp8Zdz1jhmiTJVarqQ/XScQszDgEEEEAAgSYLqOqHVPVdg8HgK6Ouc+RwTZLkJlV9w6iFOB4BBBBAAIFJFDDGvDlN07eNsvZ1h+vMzIx/tu/tqvqiUQpwLAIIIIAAAi0Q+Khz7qXr7WNd4Wqt3SEiX1vvpByHAAIIIIBACwX+U0Quds75l/Kc8vJjw9Vae6OIvOXHTcT9CCCAAAIIdEFAVS/KsuyUJ5ynDFdr7YtF5GNdwKJHBBBAAAEE1iswPz+/cW5ubmGt49cMV2vtk0Vkbr2FOA4BBBBAAIEOCdztnHv+yOEax/HXjTEXdAiKVhFAAAEEEBhF4Ebn3M6TDTjpmWscx7f5d1wapQLHIoAAAggg0DUBY8y1aZrecXzfJ4TryhtEfLxrQPSLAAIIIIDAGAL+wwAucs49cPTYE8LVWvtZ3nlpDF6GIIAAAgh0UkBV35Zl2ZvXDNeV9wr+UCd1aBoBBBBAAIHxBH7Q6/UuvO++++5fHX7Mmau19l95E/7xZBmFAAIIINBpgb9yzt1wQrj6j40Tkfd1mobmEUAAAQQQGE/gcJ7nFw0Gg3v98CNnrnEcf9kYwwecj4fKKAQQQAABBG5xzv3mkXC11s6IyH24IIAAAggggMDYAnPOuaccCdckSd6gqjeNPR0DEUAAAQQQQEDyPH/uYDD45+VfC1tr7xGRZ+GCAAIIIIAAAoUElp/YZC644ILHHz58+L8LTcVgBBBAAAEEEPACy78aNnEcv9YY8x5MEEAAAQQQQKC4wHA4fIKx1v6liPxW8emYAQEEEEAAAQSMMc8wSZJ8SFVfAQcCCCCAAAIIFBdQ1ct8uH5eVZ9TfDpmQAABBBBAAAF/wup/LZz6JwzDgQACCCCAAALFBYwxv+bDdb+InFV8OmZAAAEEEEAAAWPM7/twVSgQQAABBBBAoDSBPyNcS7NkorUEVFWMOeGjgwFDAAEE2ipAuLZ1Z+kLAQQQQKA2AcK1NnoKI4AAAgi0VYBwbevO0hcCCCCAQG0ChGtt9BRGAAEEEGirAOHa1p2lLwQQQACB2gQI19roKYwAAggg0FYBwrWtO0tfCCCAAAK1CRCutdFTGAEEEECgrQKEa1t3lr4QQAABBGoTIFxro6cwAggggEBbBQjXtu4sfSGAAAII1CZAuNZGT2EEEEAAgbYKEK5t3Vn6QgABBBCoTYBwrY2ewggggEDzBB4SkQeMMUZVzxWRxzRviROxIsJ1IraJRSKAAALlC8yJyN0i8hEfqPPz8w/Ozc0tHF1mZmbm9DzPfchuE5HLV65nl7+U1s1IuLZuS2kIAQQQWEPAGPMdVb3dGPOFNE3/ZRyoJEkuy/P8F4wx140zviNjCNdJ22g+eHzSdoz1IlC/wGqoDofDW/fu3fvdMlaUJMn2PM+vI2RPqkm4lvEgq2oOgrUqaeog0CqBnWWG6vEyPmRV9Y0icnWr1Io1Q7gW82M0Aggg0FwBY8zL0jT1f1MNfkmS5DZVfU3wQpNRgHCdjH1ilQgggMBoAqoaZ1k2GG1UsaOttX8gIn9SbJZWjCZcW7GNNIEAAggcJeCcM3WBWGuft/Is5LqW0IS6hGsTdoE1IIDAxAl8yQeIqv5PFEUPqap/fah/icrZxpgnquqzROT8Orqq8lfBa/WXJMnrVPWWOvpvSE3CtSEbwTIQQKD5Av7NFd6+tLT00fU843ZmZuZpqnqtqr6pwtb+wjn3uxXWW7NUx/8GS7g24UHIGhBAoNkCqvpuH6zOuQdGXWkcx5eIyJuMMS8adewoxxtjPpym6StHGRPy2Kc+9amPPe200z4vIk8PWaehcxOuDd0YloUAAg0RMMa8OE3TjxddjrX2vSJyfdF51hi/oKoXZ1l2X6D5x5o2SZJXqer7xxo82YMI18neP1aPAAIhBaampn7i3nvv/d+yalhrrxCRT5Q13+o8qnpTlmW/U/a8Zcxnrb1HRPzfoLt0IVy7tNv0igACIwlc6Zz75Egj1nFwgIB92BhzcZqm/76O8pUfEsfxS40xlbzWtvLm1i5IuDZoM1gKAgg0R+CPnHPBXq9prfXvaPT2ktrd6Zy7saS5gkyTJMldqvqCIJM3c1LCtZn7wqqqFDDGiH9rSS4IrAh8zjl3aWgNa+1uEdletE6e5z89GAy+UnSekOPjOPZP6PrzkDUaNjfh2rANYTkIIFC/wKXOuc+FXkaSJNep6q0F6+x1zvULzhF8eBzHfWNMFrxQcwoQrs3ZC1aCAAJ1C1T9chZrrX9pz5YCfb/TOed/xdz4i7XWP5N5pvELLWeBhGs5jsyCAAJtEPBvPJ9l2fuq6sVa+w8i8ksF6j3bOberwPjKhlpr/d+F31JZwXoLEa71+lMdAQSaJBBF0ZNmZ2e/XdWaSvjV8Fbn3LeqWm+ROtbaV4tIZf9wKbLWEsYSriUgMgUCCLRD4IBz7owqW4nj+EJjzFfHrTk/P79xbm5uYdzxVY6L4/j5xpjPVFmzxlqEa434lEYAgQYJqOp/ZFn2xCqXdN555z1hampq3DPlh5xzZ1W53iK1OvakJsK1yIOFsQgg0CqBrznnLqqyo5mZmdPzPP/RmDW/7pwr/FKeMWuPPGzr1q2bNm7c+MjIAydzAOE6mfvGqhFAIIDAbufchQHmXXPKfr9/RhRFPxynpjHmG2ma/tQ4Y+sYs3379s0LCwulvZVkHT2MUJNwHQGLQxFAoN0CDzjnzq2yRWvtk0Vkbsya33fOPXbMsZUPS5IkUdXZygvXU5Bwrcedqggg0ECBRefchirXZa19hoh8cdyaURSdMTs7e2Dc8VWOs9ZeLiKlv1dzlT2MUItwHQGLQxFAoOUCURRtn52d/XpVbVpr3ywif1qgXt85t7fA+MqGWmt/XUT+urKC9RYiXOv1pzoCCDRM4I3OuXdWtSZrrX9pyvML1HuJc+5jBcZXNtRa+x4ReW1lBestRLjW6091BBBokoB/HWaappdVsaZt27Y9rtfrfVNENhWo937nnH9zhsZfrLX/JSLnNH6h5SyQcC3HkVkQQKBFAq92zr0/dD8lvR3gfufcT4Zea9H5rbX+w9L9h6Z35UK4dmWn6RMBBNYtsG9xcfGZ999//8PrHjHigf6sdWpqareqPn7EoSccbox5YZqmdxWdJ+R4a63/u7L/+3JXLoRrV3aaPhFAYCSBv3XO/cpII0Y4OI7jW40x140wZM1DVfW2LMuuL2OuUHOU9dm1odYXYF7CNQAqU7ZAwH94uv8QdS6dFrjRObezbIGSfh18zLKMMTvSNN1T9lrLmK+EDycoYxlVz0G4Vi1OPQQQmCiBUj/SLUmSm1X1hrIFmnz22sGzVr+9hGvZD3LmQwCBdgkYY65N0/SOol2V8Nmtp1xCE89eO3rWSrgW/Z+F8Qgg0A0Bf2YYRdFt4/zq1Vp7hYj4v69eGVjr751zLw9cY93Tr7zUyL+Od2bdg9pzIGeu7dlLOkEAgdACKyH7+cXFxc/s27dvzTfcn5mZ2TIcDn/eGPPSCkL1SNvGmNvTNC3liVJFLa21fyciVxedZ0LHE64TunEsGwEE6hfYJSIPHXU9W0T81X8m7Pk1Lu8PnXNF3lKx8NKTJHm3qv5G4YkmdwLCdXL3jpUjgAACJxdQ1edkWfaFOnxCPBu6jj4K1iRcCwIWGu5f6uFf8sEFAQQQKFtAVV+ZZdmHy573VPNZaz8rIpdWWbOhtQjXhm4My0IAAQQKCxhj3pqm6R8XnujHTLBt27an9Hq9D4rIz4SuNSHzE64TslEsEwEEEBhX4BMicptzLshnqa683Ob1ImLHXWALxxGuLdxUWkIAAQROJlBqyK6Eqn9m8na4TxAgXHlQIIAAAl0S8B+rl+e5/4SaT2ZZNhil936/f3EURf4j+fxrdwnVtfEI11EeWByLAAIItExgVkT+UUQeUNUH/deFhYUHN2/ebBYXF89V1XNFxF+3icjlIvKklvUfqh3CNZQs8yKAAAIIdFaAcO3s1tM4AggggEAoAcI1lCzzIoAAAgh0VoBw7ezW0zgCCCCAQCgBwjWULPMigAACCHRWgHDt7NbTOAIIIIBAKAHCNZQs8yKAAAIIdFaAcO3s1tM4AvUIfFNEdouI/7i2b9WzBKoGFrhERJ4hIv7r5sC1mjo94drUnWFdCLRMYF5VfznLso+2rC/aWUMgjuOtxpibqvyw+AZtBuHaoM1gKQi0VWCPc25HW5ujr1MLWGt/UUS69o8qwpX/MRBAIKjAw865M4NWYPLGC/T7/WuiKLqj8Qstb4GEa3mWzIQAAscLRFF01ezs7J3IIBDH8R3GmGs6IkG4dmSjaROBOgT2OefOq6MwNZsnEMfxrxpjbm/eyoKsiHANwsqkCCAgqnpnlmVXQYGAF7DW+mcQf7EjGoRr0zZaVcUY07RlsR4ERhYwxrw9TdPfG3kgA1op0O/3z4ii6IetbO7EpgjXjmw0bSJQh8BO59yNdRSmZjMFrLXazJWVvirCtXTSEib0Z67+DJYLAhMuQLhO+AaWvXzCtWxR5kMAgS4KEK5d3PVT9Ey48oBAAAEEigsQrsUNWzUD4dqq7aQZBBCoSYBwrQm+qWUJ16buDOtCAIFJEiBcJ2m3Klgr4VoBMiXWJ8CTm9bnxFGNFCBcG7kt9S2KcK3PnsoIINAeAcK1PXtZSieEaymMTIIAAh0XIFw7/gA4vn3ClQcEAgggUFyAcC1u2KoZCNdWbSfNIIBATQKEa03wTS1LuDZ1Z1gXAghMkgDhOkm7VcFaCdcKkCmBAAKtFyBcW7/FozVIuI7mxdEIIIDAyQQIVx4XxwgQrjwgEEAAgeIChGtxw1bNQLi2ajtpBgEEahL4iHPuZTXVpmzDBJIk2a6quxu2rFDL4SPnQskyLwJdFzDGZGma2q470P//C1hrrxWRv+mIB+HakY2mTQRqEYii6KrZ2dk7aylO0UYJxHF8hzHmmkYtKtxiCNdwtsyMAAIi8rBz7kwkui3Q7/eviaLojg4pEK4d2mxaRaAugT3OuR11FaduvQLW2itE5BP1rqLy6oRr5eQURKCDAsaY+4fD4dWDweDeDrbf2Zatte8Vkes7CEC4dnDTJ75lPoZvYrdwXkT+SUTmRCQVkf0T2wkLX1PAGPM0ETlPVWMReV5HqQjXjm78RLatquKDlQsCCCDQcAHCteEbxPIQQAABBCZPgHCdvD1jxQgggAACDRcgXBu+QSwPAQQQQGDyBAjXyduzdq6YJym1c1/pCoGOChCuHd142kYAAQQQCCdAuIazZeZVAZ7ly2MBAQQ6JkC4dmzDaRcBBBBAILwA4RremAoIIIAAAh0TIFw7tuG0iwACCCAQXoBwDW9MBQQQQACBjgkQrh3bcNpFAAEEEAgvQLiGN6YCAggggEDHBAjXjm047SKAAAIIhBcgXMMbUwEBBBBAoGMChGvHNpx2EUAAAQTCCxCu4Y2pgAACCCDQMQHCtWMbTrsIIIAAAuEFCNfwxlRAAAEEEOiYAOHasQ2nXQQQQACB8AKEa3hjKiCAAAIIdEyAcO3YhtMuAggggEB4AcI1vDEVEEAAAQQ6JkC4dmzDaRcBBBBAILwA4RremAoIIIAAAh0TIFw7tuG0iwACCCAQXoBwDW9MBQQQQACBjgkQrh3bcNpFAAEEEAgvQLiGN6YCAggggEDHBAjXjm047SKAAAIIhBcgXMMbUwEBBBBAoGMChGvHNpx2EUAAAQTCCxCu4Y2pgAACCCDQMQHCtWMbTrsIIIAAAuEFCNfwxlRAAAEEEOiYAOHasQ2nXQQQQACB8AKEa3hjKiCAAAIIdEyAcO3YhtMuAggggEB4AcI1vDEVEEAAAQQ6JkC4dmzDaRcBBBBAILwA4RremAoIIIAAAh0TIFw7tuG0iwACCCAQXoBwDW9MBQQQQACBjgksh+uzJqzpt4hIk9f8JRG5W0S+JyL7VTUSkSuMMVeKyGMmzJrlIoBA8wRURH4kIgdOcl2+XVWX74uiaPWYY2739xljzszz/ExjzFki8nMN/7m6S0R2Nm8rTr4iY8z3zaQsdnWd1tp7Gvgg2CsitwyHw4/v3bv3u2uZJklymapeJiLPEZH+pNmzXgQQGEngmPDzgRdF0ZFQXA3AlYA86e2qunz7aaed5sNwOSz37NlzcKRVrPPgmZmZs1T1Zar6JhE5Z53Dqjpsl3Pu2VUVK6MO4VpMcV5E3jo/P3/L3NzcD0aZqt/vx1EU/ayIXKKqlxhjnjDKeI5FAIFSBA4dd/a3rjPC1bNCY8wxZ4Q+MPM8PzAYDPztE3mx1p7jA9YY87oGNUC4ht6Mppy5GmPuHw6HVw8Gg3vL6HlmZuaJqrpDVWN/VmuM6a98X8b0zIHAJAr4f7z6s7SDqnrQGLP8/crVh+Ly9/52f//qcVEULf+3v0ZRdGjlviO/KvXhl+f5j/bt2+fPLPNJhKlizXEcv8EYc1MVtdZRg3BdB1KhQxoSrnucczsKNbLOwXEc96MoileCdouIbDHGbFFV/2ubTeuchsMQKFNg8fhQGyHwDh0dfr1e70gQDofDgxs3bjy4sLBwaDAY+LAk+MrctTHm2rZt2+N6vd53xhha9hDCtWzR4+drQLg+7Jw7M3Sf65l/69atmzZs2OAD9xwfuP6rqj7aGONDd5P/qqrL369cl+9T1d565ueYxgocFhEfcAsr10VVXTDGHHObv88Ys5Dn+aL/unrs6u1+DlWdXznDO/psb/ksMM/z5dt6vd4hH3yLi4sHt2zZcnDXrl1LjZVhYaUL9Pv986Mo+kbpE482IeE6mtfoR9cdrlEUXTU7O3vn6CtvzoiZmZnTDx8+vGl6enrTcDhcDuBer/foPM83RVG0/N/+elRIP3olpKdUddoYMyUiU/6rqi5/769H37d621Ff/bOmG3ExxgxVdSgi/uqD4sj3q/f5+40xJ73v6DGqengluI4JtpVQ84G2GmzL968em+f5ctitBuLq7f7r0tLS8u2rt0VRtDA9Pb2wf//+xQcffNCP44yuEY+k7iwijuMbjDE319gx4Roav85wVdXbsiy7PnSPLZ2/t3Xr1qlHPepRU9PT01MHDhyY8pderze1sLAw7b9GUbQc2EtLS8vf++vS0pK/LxoOh8Opqakl/7XX6w3zPF/K83z5+6WlpeH09PTSyld/yNLi4uJww4YNw0OHDg03b9689Mgjjwy3bNky5KyrpY8u2gouYK3dLSLbgxc6eQHCNTR8neFqjNmRpume0D0yPwIIINA0gSRJrlPVW2taF+EaGr6ucFXVD2RZ9qrQ/TE/Aggg0FQBa+2/icjWGtZHuIZGrytcjTGXp2n66dD9MT8CCCDQVAFr7btE5PU1rI9wDY1eU7g+5JzzbxHGBQEEEOisQJIk21XV/+216gvhGlq8pnD9tHPu8tC9MT8CCCDQdAFrrX/3qdMrXifhGhq8jnDl762hd5X5EUBgUgTiOP52DW/XSriGfoDUEa4i8g7nnH8zay4IIIBApwWstV8VkQsrRiBcQ4PXFK47nXM3hu6N+RFAAIGmC9T0M5hwDf3AqGljCdfQG8v8CCAwEQI1/QwmXEM/OmraWMI19MYyPwIITIRATT+DCdfQj46aNpZwDb2xzI8AAhMhUNPPYMI19KOjpo0lXENvLPMjgMBECNT0M5hwDf3oqGljCdfQG8v8CCAwEQI1/QwmXEM/OmraWMI19MYyPwIITIRATT+DCdfQj46aNpZwDb2xzI8AAhMhUNPPYMI19KOjpo0lXENvLPMjgMBECNT0M5hwDf3oqGNj8zx/1WAw+EDo3pgfAQQQaLpAHMe3GmOuq3idhGto8DrCVVUvyrLsa6F7Y34EEECg6QJJkrxOVW+peJ2Ea2jwGsJ1Loqi82dnZw+E7o35EUAAgaYLWGufJyJ3V7xOwjU0eA3heqVz7pOh+2J+BBBAYFIEkiS5WVVvqHC9hGto7IrD9WPOuZeE7on5EUAAgUkTsNZ+TkSeW9G6CdfQ0FWFq6renGXZb4fuh/kRQACBSRWo8O+vhGvoB0nAcP2hiOxRVWeMudM55/9VxgUBBBBA4BQCcRy/3BjzQhF5uojMBMKauHD9P3C8VVX0B55yAAAAAElFTkSuQmCC;" vertex="1" parent="1">
          <mxGeometry x="30" y="230" width="141.3" height="60" as="geometry" />
        </mxCell>
        <mxCell id="e0pzkqqJAxzMXHmGNhIU-3" value="交换机" style="shape=image;verticalLabelPosition=bottom;labelBackgroundColor=default;verticalAlign=top;aspect=fixed;imageAspect=0;image=data:image/png,iVBORw0KGgoAAAANSUhEUgAAAMgAAADICAYAAACtWK6eAAAAAXNSR0IArs4c6QAAF3pJREFUeF7tXXu8HVV13mvOvebKyxRosRAp4IWbe/be5wYCjaE8gqAgFlAeLdCiUCjKo5RgsSAFBApUgSYKCAQrKFKBQBFQfIBKCZRHG8I9s+YENDxaHhaIIEIwwdxZ/e30JFySe3Nnz+w9Z+bM2r9f/spa31rr2/PdOTOz99ogeDADzMC4DABzwwwwA+MzwALhq4MZWA8DLBC+PJgBFghfA8xAOgb4DpKON/aqCAMskIpMNJeZjgEWSDre2KsiDLBAKjLRXGY6Blgg6Xhjr4owwAKpyERzmekYYIGk4429KsJARwTSaDR2IqIPxnG8FQBMrgjXXGZKBojo6Vqt9kKz2fxJSojUbrkLRGt9MhFdKoSYlDprdqwqA3ch4oF5Fp+rQLTWhxHRLXkWyLG6joGnELE/r6pyEwiLI68prUScixHxC3lUmptAlFILhBC75VEUx+h6Bpb39vZuvWjRold8V5qLQKSUdQCIfBfD+NVhgIhOiqLoa74rzkUgWusjiehG38UwfnUYAIBrwzA83nfFeQnkbCI633cxjF8dBgDgp2EY7u274rwEch0RHe27GMavDgMA8GwYhtv6rjgvgdxPRLv7Lobxq8XA4OBgz/z580d8Vp2XQF4goi19FsLY1WOgVqsNDA8P/9xn5d4FMnPmzPe+8cYbb/ksgrGryQAA7B+G4Q98Vu9dII1GQ8VxHPosgrGryQAA/E0Yhlf4rD4PgRwYx/EdPosoGfbjRDQHAL5ZsrwLly4AzA3DcLbPxLwLRGs9m4j+2WcRJcG+VwgxFxG/L6U8BABuLUneRU7T++LFPARyhfnqWWSWPed2cxzHc1qt1iOr4yilPiuEuMpz3CrAtxBR+iw0D4H8gIj281lEEbEB4ErzUwoRn1o7P631OUR0XhHzLllOKxCxz2fO3gWilDKv4bb3WUSBsH8jhJizcuXKy5944olfjZeX1rrqd1VnUxYEwQeazebzzgDXAvIuEK31SiKq+SqgILhPA8CcMAzN4rl4opyUUmZPzGET2fH/T8wAAOwZhuH9E1ums/AqkEajsW0cx0+nS60UXo8S0dwoir5jk61S6mdCiFk2Pmw7NgMA8FdhGF7nix/fAtk7jmPz9qarBhGZj1NfiaLoR2kKU0qZpf/1NL7ssw4DFyLiP/jixatAtNbHE9E1vpLvAO4NcRxf0Wq1Hs0SW0r5CgBsngWDfdcwcBMiHuGLD98C+RIRfd5X8nnhmueLIAiudrXuRylFeeVegTj/iYh/7KtO3wKZT0SH+kreM+5S82Gvt7d3nuutnSwQpzP3KiJu5hRxFJhvgTxGRDv6St4T7pNEdHlfX9+8hQsX/s51jOnTp2++YsUK73upXeddZDwA2DQMw9d85OhVIEqp14UQm/hI3APmgwDwtTAM/9UD9hpI3p/vhd1dEPG/fCB7E4hSagshxP/6SNolJhHdEQTBvDAM73aJOx6WUqpyr3cBYA/PKwcOR8SbfcyfN4E0Go0PxXH8kI+kXWAS0fVtYRQ2Rxd1FgFDKWV6WF3oMZcvIOLFPvC9CURr/RdE9G0fSWfAfNv8jCKieYi4OAMOu1owoJQ6XQjxZQsXW9N/QcTjbJ2S2PsUSJE6mfwSAK4eGRmZ12q1Cv+zL8nElclGSjkbAHxuebgPEffywYlPgVxPRJ/2kXRSTNOsztwt3nzzzXnPPvvs8qR+bOeWgXbD8svdor4L7TlE3NoHvjeBdLjV6ANCCPMz6gYfpDGmHQN57H+J43hSq9V62y6zia19CuRFIcQfTpyCU4u72sL4nlNUBsvEgFLqWCHE1zOBTOxc9/Fc6UUg/f39m/T19ZlvIJ0at5ufVlEU/bBTCXDcdxiQUn4qhz34ByCi8z+MXgSilGoIIYYLcJHcYl7lduJkogLUXpgUpJSHA4DVloAUyZ+KiF9J4bdeFy8C0VofRETfdZ1sBrwbAcB8DPS2sSZDbl3vmlOTissR8RTXZPoSyGlEdJnrZLPi8cfBrAym85dSHgAAd6bzTux1NyJ+PLF1QkMvAlFKXSmEODFhDrmbmdb5QRBcNTw8vCj34BUMKKXcDwC8dkAUQjyBiIOu6fUlEPNwvK/rZB3jrTRvvIIg+Gqz2XzSMTbDjWJASvlhAPB9Qu3vEPE9ron3JZDSdDIBgN+aN15CiMsQ8TnXBI/Gmz59+gYrVqz4vs8YBcb2vkgzjuM/arVa/+OSA+cCmTVrVs/SpUtXCCECl4nmgPWGuaMQ0UVRFL3qI15ZVjj7qD0PTCL6cBRFpiGGs+FcIIODg9vXajWvLemdVT820KvmjrJs2bLzXC9P6QJuPFOfDZ6I/jqKIqcfJJ0LRCn1USFEqm4f2ehx7v1S+2PjOa6QG43GTnEcL3SFxzjvZoCI/imKojNd8uJcIFrrzxDR1S6T7DCW6dp3FSJelDUPrfWeRHRfVhz2H5eB+Yj4Zy758SGQruhkMgbJzxDRV6Mompt2ApRSfyqEMOvFePhh4DFEnO4S2rlAlFKmrf8hLpMsEhYAmOerS8MwvNY2LynlkQDAx2HbEpfc/nVEnJzcfGJLHwIxH9+mTRy63BZmr4kQ4uIwDBNf8J5+ft4DAC92eu9NUWZz5cqVm6+vcbhtnj4EYjqcb2ybSIntzaLM8xDx9olqUEr9nRDikonsLP9/1SEy7T7I5kiFoyz9u8o8juMZWTtfjibEqUAajcaUOI69fmwr8GyatjNnIeKPx8tRSnk+AJztuIZ3PZhqrbdrdxD5S8dxSgFHREfaNhNfX2FOBVKv13cLgmBBKZj0l+QDcRyf2Wq1zK7Gdw2t9RwiOtVx6BsQ8VNrY0op+82dDQCOdByv0HBEdHYURf/oKkmnAlFKmdv7t1wlV3KcH9dqtTNGL4hUSpmPWGZ3nbNhFl6GYXj8eIDm42RPT895ROStwbOzYhwAmRXbURQd4wBqFYRTgfDRYmNOy+1BEJxpFkR6Ojgn0T6IRqMxEMexeUb5c1cXTxFxiGhBFEV7uMrNqUCUUuZo43Vu966SLTmO2bS1mYfzGi9BxMQd9JVSZkn4F4UQTj+oFWVuiOjFKIq2cpWPa4GY391/4io5xpmYAQC4IAxD6+Uw7R7BRihddxTcxhtvvMFDDz3024nZm9jCtUA60clk4iq728K8OUu9DKbRaKg4jo1QuubjbhAEutlsootpdyYQKeWmADDuya4ukmWMdRkAgM+FYZi5a6HWWhOREcrBZecZAD4RhuEdLupwJhCt9XQi8tKC3kWh3YpBRCdFUWRO13UypJRDAGCE8gkngB0AAYDTwjCc4yK0M4FIKQ8FgPkukmKM5Az4OuW1Xq/vCADnAsBBybMphiUAXBmG4ckusnEmEE/LKFzU2NUYrr8cr01Wew+LuaMcUBYiAeCHYRh+zEW+LgVS6E4mLsgqIgYAfDIMQ+89yJRSOwshzhVCmCX7RR+/QMQdXCTpUiBl6GTigrNCYRDRx/JssSql3KX9jLJ/oYh4dzIxItZc5OdSIL8QQpj1P50aZiNS5rc5nUo+S1xEzH2XYr1en9F+RnHyUyZL/WP5BkGwXbPZfCYrrhOBTJky5b2TJ09e5nrpimVxVyPiCZY+bJ6RAa31TCIyP70K1QcNAD4ShuG9GctzsxarvXyhlTWZLP4AcE4YhhdkwWDf9AwopXZtL2H5SHoUd54A8NkwDK/JiujkDqK13p+IOt0Q7VhE/EZWQtg/GwPtLQ/mjrJPNqTM3lZr1MaL5kQgUsqTAOCKzCVlADCLAKMo6oZ2QxlYKI5ro9HY3XyZN83cOpTVbYh4aNbYTgSilLpUCPG5rMlk8Xf1UJYlB/Zdl4F2qyNzR/FyyOZ6OH8cEXfMOieuBHJbJ9fwmP66YRhukJUM9nfPQPtOci4R7e0efb2IbyDiJlljuhLI40KIoazJZPB/ChE7+Yo5Q+rd6dpoNGa0f2Lt16kKgyDYotlsvpwlviuBdLqTyf2IuGcWItjXDQNmaYp57UtEB7pBTI8CALuGYfhQegQHW26nTZu2zcqVKzN/kMlShBDiJkSsxJ7rjDx5cy/ovpKjEPHbWYrOfAeRUu4FAD/NkkRWXyI6P4oi8yDII2cGhoaGdjAbrgraFOKLiGj24acemQWitT6GiDr6/cH3itbU7Hax49SpU7fp7e01wvh0gcscsyWSTb6ZBeKpGZpNDSIIgunNZvMxKyc2TsXAwMDAlr29veav8nGpAPJ1+g9EzNQjIbNAlFI3CCE62sVv0qRJGy5cuPCtfLmvVrSpU6du1tPTc36RD2cdY0ZeQsT3Z5kpFwIpQieT3FezZiHdla959vO9/mxgYGDj3t5es8btb13lnSdOEAQbNZtNs5A21XAhkF8KITKpNFXm7GQYOB0RzSoG56O/v39SX1+fEcbpzsHzBRxCxGbakJkEwodSpqXdjZ/rhg3trEApZYRxlpssO45ycJLO++NlmUkg5mtpHMcPd5yCiibgumGDUsq8Kjf/Ml0XBZuOTHfZTERIKQ8HgO8UjJAqpXM4It6ctWCllDn40jRmeE9WrAL6Z9pIl0kgbWJTd/UrIJmlSsks54iiKPWZh1rr09pniWxUqsLtkr0HEc3Jy6lGJoFIKa8BgHFb76fKiJ0SMxAEwT7NZvMniR3ahlrrk9vC2NTWt4T2TyPiB9PmnUkgSilzmlIhtlimJaDMfraL8bTWx5tlOUKILcpct23uiBgIIcjWz9hnFcgSIURqdaZJmH3eYYCIpkVRZM5IXO+o1+tHB0FghPGBiWy78f+JaPsoisy1aj1SC6T9Aen1rCKzzpgd1jAwMjKyw+LFi027pTGHlPIIADDHkW1Xcdr2Xd/ZkevjJrVAlFINIcSEf70qPjFey6/ValOGh4dfWDuIlPKQtjCmek2gPOAnIuJVadJNLRCt9UFE5L3lZZqiquIDAJuGYfja6nqllAe0hWH+ePF4h4HLENEcwW09UgtEKWXW5sy1jsgOzhhYvnx535IlS1ZIKfdtC8P0z+WxLgPfRcRPpiEmi0CMOEq5gC0NUUX0MS112sIwTdt4jM9AiIip7qqpBaK1vqMI+475qmAGEjDwFiJumMBuHZPUAlFKmRWSOk1Q9mEG8mZgZGRky8WLF5uV51YjlUBmzZrVs3TpUvNw2M1LFKyIZONiMxDH8e6tVsvsXbIaqQQipewHgHHfv1tlwMbMQA4MENHRURR90zZUKoEopczyErPMhAczUAoGiOiCKIqsz5NPJZD2mp7MreVLwSwn2S0M3IiI1r0TUglESnkxAJzRLcxxHZVg4GFEnGlbaSqBKKXMJqnDbYOxPTPQQQZeQcQ/sI2fSiBa64eJaIZtMLZnBjrJwPLly9+3ZMkS00c68UglEKXUS0IIazUmzooNmQEPDMRxvFOr1VpkA20tkKGhoa1GRkaetwnCtsxAERggosOiKLrVJhdrgbTPoFtgE0QIUcnGbpYcsbk9A7NsXIjojCiKvmTjYy0QpZTpfmHVSR0RrePYFMG21WRAKWW7jfY8RDTXb+JhfeGyQBJzy4aeGWCBeCaY4cvNAAuk3PPH2XtmgAXimWCGLzcDLJByzx9n75kBFohnghm+3AywQMo9f5y9ZwZYIJ4JZvhyM8ACKff8cfaeGWCBeCaY4cvNAAuk3PPH2XtmgAUihKjX6+/v6enZJo7jvix8E9GyWq32381m8+UsOGv7KqUG4zie1Gq1HneJOxorjxha6+lE9GtEfMpXHa5jVF4gadZ9JZjcmxDxiAR245oopcyRD5cIIfYQQmzWNvy1EGJBHMcXtlqtR7LgG9+cY+wthNjExCWiZ01DjiiKPpO1hrXqcB6j0gLxeTgPAMwNw3B2mgsgoWitV42udcdIsmLae4w0G4xs68gSo7ICUUp9XAjxvTQXcFKfIAgOajabdya1N3b1en1GEARJT/XtT/NzJY8YSqmjhBDfSlD7WwAwZXQH+QQ+q0xyilHN5e5SyhMB4Mqkk5HGjohmR1Fk1Z1eKWUEdUDCeLcj4sEJbdeY+Y7RaDQ2jOO4JYTYOmFutyHioQltV5nlEaMtwmoKJOHPGJs5G8vW+ieKUso84P9+wsC/QsTNE9qOFojXGFLKXQDgUYu8rOvIIwYLxHLXosWErza1Esjg4OD2tVrt55Zx6oi4OKlPHjGUUscKIb6eNKe2nVUdecRggRRMIO23SlYHQdZqtYHh4eHEosojRvtAz+tsBGJbRx4xWCAFE4iZECnlMwCwTcKL63lEtD5V1neMFGdLWteRR4xKCySn3r+nIOLlCS/2VWZSymsA4PiEPpci4ukJbdeY5RFDa30/Ee2eMLeLEPGshLZrzPKIUdnXvFrrfYjoHttJsbRPdTRw0knJ0snFdwyt9XZElOSL+YOIuJslr6vM84iRlKdR+Vs9dxq/wnY1UUr9mxAi1cGLCSbUmqjVmPV6fccgCMxBLBuME+dtc3ZgFEUPJshjTJOCxFiCiNunrcH4JagjU4xKC6T9k+Y4APh7IUR/lola7QsAERHdjYifz4Kntf49IrpWCGEal61ZakJE/x7H8QlpjvpaO5+cY5jzXtYsNQGAuxDxlCwcrfYdVYfzGJUXyKi/2tOCIJicZcKI6OUoiswHMqcjj4WEecRwvZBwLJJdx2CBOL2UGazbGGCBdNuMcj1OGWCBOKWTwbqNARZIt80o1+OUARaIUzoZrNsYYIF024xyPU4ZYIE4pZPBuo0BFki3zSjX45QBFohTOhms2xhggXTbjHI9ThlggTilk8G6jQEWCDeOW3VN81qssaVdeYF4at7AjePa19uo5nTOm7qtvqR9xqi0QLhx3IRHbafe09K+K03YnC5LU7c8YlRWINw4zm9zupyauuXRnK6afbG4cZy/5nT1en2jIAgin43j8ojRvkNVUyCenj3WftKz/omilHpNCJF049ZvEPF9tm+OfMdQSu0qhLDZDmxdRx4xWCAFa/tTr9fNrsZFNhc8AOwchuHCpD55xJBSngoAc5LmZOxs68gjBgukYAIZGhraamRk5HmbC8v8jEHE55L65BFDa30YEd2SNKe2nVUdecRggRRMIO0JMZ0VzdkgEw5zzkYURdtOaLiWgVLKawwpZd00r0iaV5o68ohRaYForY8hom8kncSUdicg4tU2vnk0dcsjRh5N3fKIUdnXvI1GY+84ju+1uXhT2H4UEa2b0yWdFG4c5785XdK5GHVtWL+YKXLjuAk/ZKUQxSqXOI6PabVa16fxNz8fgiC4hYjkWP4A8OLIyMjBWY5hK0IMIcRCRNw5DUerfSaqI2uMSgvEkGwe9oQQZxLRwHo6GSadw2VCiBYR3RpF0ZeTOo1n134VvRMAmMMvTZfF+4QQw4hohO1k5BjjQ0KImUT0KgAsAIAHwjCc56SI/19LZjhxHqPyAnE1QYzTnQywQLpzXrkqRwywQBwRyTDdyQALpDvnlatyxAALxBGRDNOdDLBAunNeuSpHDLBAHBHJMN3JAAukO+eVq3LEAAvEEZEM050MsEC6c165KkcMsEAcEckw3ckAC6Q755WrcsRA1wjEER8MwwxkZaCYy92zVsX+zIAjBlggjohkmO5kgAXSnfPKVTligAXiiEiG6U4GWCDdOa9clSMG/Auk0WgcGMfxHY4SZhhmIDcGgiA4qNls3mkT0LppQ6PRGIjj+AmbIGzLDBSBgSAIpjabzSdtcrEWiAGXUj4MADNsArEtM9BJBojokSiKTOMIq5FKIEqpWUKIn1lFYmNmoLMM7IWIpvOM1UglEBNBKXWuEMJZixurrNmYGbBjwPrhfDV8aoG0RTIohDCdwve1y5etmYFcGPiREGI2Ii5OGy2TQFYHNQ/uQoiBkZGRqQBgmqjxYAY6wgARvVWr1cxLpCdtH8jHStiJQDrCBAdlBnJggAWSA8kcorwMsEDKO3eceQ4MsEByIJlDlJcBFkh5544zz4EBFkgOJHOI8jLAAinv3HHmOTDAAsmBZA5RXgZYIOWdO848BwZYIDmQzCHKywALpLxzx5nnwAALJAeSOUR5Gfg/HL6Obn8duVUAAAAASUVORK5CYII=;" vertex="1" parent="1">
          <mxGeometry x="230" y="227.5" width="65" height="65" as="geometry" />
        </mxCell>
        <mxCell id="e0pzkqqJAxzMXHmGNhIU-10" style="edgeStyle=orthogonalEdgeStyle;rounded=0;orthogonalLoop=1;jettySize=auto;html=1;entryX=1;entryY=0.5;entryDx=0;entryDy=0;" edge="1" parent="1" source="e0pzkqqJAxzMXHmGNhIU-5" target="e0pzkqqJAxzMXHmGNhIU-3">
          <mxGeometry relative="1" as="geometry">
            <Array as="points">
              <mxPoint x="390" y="338" />
              <mxPoint x="390" y="260" />
            </Array>
          </mxGeometry>
        </mxCell>
        <mxCell id="e0pzkqqJAxzMXHmGNhIU-5" value="摄像头" style="shape=image;verticalLabelPosition=bottom;labelBackgroundColor=default;verticalAlign=top;aspect=fixed;imageAspect=0;image=data:image/png,iVBORw0KGgoAAAANSUhEUgAAAMgAAADICAYAAACtWK6eAAAAAXNSR0IArs4c6QAAIABJREFUeF7tfXuYJVV171p1ugeGoYeA7wEFFHkMd4Y+taunGR6K3ASUN6IoAj4gYjS+YhxQHooRcUAvGJiYKIELAmIEIjBAZJIoisPQ07XqNAO0BNHggyEYAwFmaJg+p9b9FlRzhwlD19pVtavO6drfd77+o9dae+2161f7UeuBULdCLbBw4cI5W2yxxfxOp7On53nzmXlPRNyWmWcDwJYAIH83/ok+E5v8nkHECWZ+HBHvi+N4vNFo3Pfss8+Or1mzZn2hA5jhwnGGjz/X4S9evHi7ycnJ/QBgPwECAMwHgJ1y7eR/CnsIAMYFOADws/7+/p+tWrXqsYL7nDHia4BkmGpjzOsAYDj5HQgAizKIy5N1NQD8CABG5EdEj+QpfCbJqgGinG3f9xci4hGIeAgzL1ayl0KOiKuY+VZmvimKojWlKNGlndYASTFxzWZzx0ajcTgzHw4AB6VgqTLJCkRc3ul0lrdarV9XWdEq6FYDZDOzcMABB/StW7fuuAQUAgw5UPdSewYAlgtYtt5662tuv/32di8NLq+x1ADZxJLGmFcCwAcB4AMA8L/yMnTF5dwLAFcAwOVE9IeK6+pUvRogibl9398FEQUUAo4dnM5CdTr7nYCEma+IoujB6qhVniYzHiBBEDTjOD4JEQUYW5c3FZXqeR0zX+553mVhGLYqpZljZWYsQOSM8dRTT30OAOQ3x7Hdu6U7+Qi5dGBgYOlMPaPMSIAEQXAkMwsw9u6WJ7VkPe9CxKVhGN5Ysh7Ou59RABkaGnpjHMcCjA87t3RvdHiJ53lLR0dHf9Ubw5l+FDMGIMaYTyTbqXnTm6VQivXMLK4hjyGibGGe3uQnnW+18Y+Z5zDzdogoritlbwfXyraLiC4u1EoVEd7zAGk2m/M8zzsfAI4vweZjADAmgPA87752uz0+NjYmvlPWbXBwcKe+vr75cRyL06MAZjD5Wcu0ZLw6juNTW62WAKZnW08DxBhzKACcBwDiOOiirQSAO5h55eTk5Mp77rnncRedLliwYNv+/v59EXFfANgfAOSviyYOkqcR0S0uOiujj54FSBAEZzDzOQUbdR0i3hLH8c2dTufHd99998MF95dK/F577bV9o9F4m+d5hzGzvCQKvb5GxDPDMPxKKuW6jKjnACIH8U6ncz4iHlPQXMTMfDMA3CJ/q77FkC0mIh4GAIcmf70i7MLM1zcajVN77QDfUwAZGhp6axzH3waAXQt4CNYy8yWIeCUR/bIA+YWLNMa8iZlPRES5xSvisuIBz/NOGR0d/Unhg3HUQc8AxPf9YxHxEgCYm7PtpoDxrV6Jq5A4Fmb+SEFAeZKZPxxF0fdznodSxPUEQIIgOImZL83Zgj0HjE3tUyRQEPHkMAwvy3lOnIvreoAYYz4JAH+dp+WY+cL+/v4LRkZGxHmv59vw8PAOk5OTn0HEv8h5sJ8iootylulUXFcDxPf90xExz9uTa+M4vrDVaq1yOgsV6azZbC72PE9A8u68VGLmM6IoOjcvea7ldC1Aki/jubydkpDUC4noWtcTUMX+jDHvltUkx5DiT3brl/euBEgQBO+QGOucHq6vE9GSnGT1lBhjzNcA4LN5DEpi+MMw/Kc8ZLmU0XUAMca8LcnYkdVOjyLikjAMr8wqqJf5gyA4kZkFKK/JYZwHEtGPc5DjTERXASTZI9+Zg3VWMPOSOsNHOksmmVwEJJkTVsRxvE83nfG6BiAS+cfMPwSAV6eb1s1S1VsqSwPmtOX6PSK+vVsiFbsCIEkch7h37GE5t1NsnyeipRllzGh2Y4zE03w1oxF+Ln5i3eCW0hUA8X3/uhx8qz5NRLl+L8n4kHQtuzHmUwDwjSwDEN+tKIrelUWGC97KAyQnr9yDiWiFC4POlD6MMXIeuS3LeLvBC7jSAEniOWRrZd36+vpeOzIy8qi1gJpxsxYYHh5+Tbvd/o+MJjqsyvEklQVIEgkob/0swU5/RERPZJzAmv1lLGCM2QYA/juDkaScw0FVDRuoLECMMVdlDJNdSET3ZJi4mjWlBYwxCwAgS1Lsq4nohJTdOSWrJEBycCOp9LLtdIYddZbDdriS7iiVA0hypXtHhoCejxHR3zp6LupuNrKAMeajAPBNS6Os9Txv/6pd/VYOIMYYiQi0zVtVfwS0fDrzYsv4MfESIjolL13ykFMpgCQZD2+wHNgKIjrYkrdmy9ECxhi5/rVyS0HEo6qUwbEyAEly5crWyiYd6KPMfFC3+VYtXrx49oYNG+bFcSxZSOYx83Nx4oi4ttPpyJbj4VmzZq1dtWqVFPXsmpb4bskNpI2D410DAwP7VyUXcGUAYow5EwC+bPMUIOL7q+6VOzQ09PpOp/PHSXaR3ZIz1nYpxytFOSUE+N8km0qj0fiX0dHR36bkLYUs8QL+jmXnZxFR0SmbUqlWCYAkjoiyetik1azkuWP+/Pmz5syZ85Y4jiWR29sLKPAphTp/6HneHevXr//p+Pj4hlQz7pAow3lkPSLuXwWHxkoAxPf9ixHx49q5k0jAMAz30fIVSd9sNud7nid5gI8EAKmC66JJFdsb4zi+uNVqjbvoMG0fQRDcaROZyMzLoigSO5baSgdIUtlJirTYZP87tiphspLNsK+vT0AuP5ux5PEgrAOAZe12e1lVsjxK+C4A2KQAkiI+zbIrXZUOEGOMnDvk/KFt1xLRsVqmvOnnz5+/9ezZs6eAsX3e8i3lSQrUZRMTE8vGx8cFNKU2Y4wAxCYRxDlEdFaZypcKkKRgpqwe6pqAVYhMM8b8WbJiZPEXK3L+Jbn0MiL6uyI7mU52hkhQSbvULLOwaNkAkYQAEsqpapK3Koqiz6iYcib2ff9SRDwpZ7GFiGPmy6IoOrkQ4SmF+r5/gWXerSVE9PWU3eROVhpAku8esnpoSy2v7evrGy4rqVuz2XwVIt6AiJW6HJjuyWBmOSwf1Wq1/nM62iL+L8np2u32iIUL0b0DAwPNsr6LlAYQ23tyZv5SFEVnFzGJ08n0fX9vKXcAAGm/X0wn0vX/H5NyCFEU3eW6Y+nP9/2zEfGL2r7L/M5VGkAsD25SzSgoI4m07/snSGZ37eRWkV4yvEdRJOEETpvkAgaA0GIVKe1CphSANJvNHT3Pux8AttTMUFmrh+2bTzM217RdZstn4jjevdVq/dq1nUoBSBAEH2dmbRHIUlaPHBPVuZ7bNP05T+Rmu4og4ifCMFyWZlB50pQCEBtvzzLeeIODg29uNBoP5GnwRNazctBn5lFxTASARzzPW9vf3y9fxGFycvJ1cRyL46LU8ZAKUUNywAaALfLWpdPp7Do2NvaLvOW+nDzLFbkUb23nAEk8Pe9WTkgsVaNcVnYaHh6e22635TuC+hvNZsb2XwCwHBFvfvrpp5drfafEt2urrbY6nJmlnNrhAPAKpQ03R/67vr6+PUdGRp7MSd60YqTSFQDIi0dVDo6Z93Ltse0cIDZeu8x8UxRF4tvkrAVB8D1mfk8OHeZeiCfvwjeI+A9hGL43h7GmFuH7/o2IeERqhucJnXv5lgEQqb2hivmQcmFRFEmkoZNmjJEEc1KYJ0vLHRibKpMzUC4iIkkI56T5vn8KIn5L2dldRLRYyZOJ3ClAJCYijuPfKDVeF8fxbq7SwiTuI1lj2q8AAElz+tyZouiWHHwlHegHMvb1UVduKUlaJ4lvUTl2ep73BpexME4BYox5HwBcrZlEl8t/4ngoH9Gy+FadR0SSv9Z5M8ZI3uHTMnR838TExN6uHBwtt7HHE9F3M4xRxeoUIEEQLGPmP9do6PKjVtbEzIh4ZBiGN2nGlzdtEARHMPONGeQ6S/Bt8/EVEf8mDEN17JCtPZwCxBgjvleDSmV3JCLttkzZBUASzyG+QlYu60Tk1JbTDdAYw9PRbOb/D7fb7WEX8STGmDcAgPbj3xgRNS3HpmZzNqmJa7vKUQ4RwzAMh9SjsmAwxsge3nZrZIgosui2MBZjjA8AZNnBUiL6vCWvii0IglFmDlRMAK9y5QLvDCC+7x+NiP+oMYSr5TQJk5XVQ3VgTMbyYSL6e824XNEaY/4UAC6x6E8uRoZdhO9abrvfGUXRDyzGpWZxBpAgCM6XsmcaDeU7RBRFNuGamm7AGCO3VhL8pG3fJCLVmUrbQVZ6Y8zfAMDHLOT8HRFJpsRCm+/7x8pFjKYTRPxaGIananhsaZ0BxBgjbuKHaBRtNBqvXL16tXyBLqztsssuW2yzzTayD9bmcCrFN0xrCFvfJwB49IknntjxwQcffFbbp4Z+0aJFr+h0On/Q8ADArUR0qJLHitwlQP4dAHZSaHk3EWkP9Arxz5P6vn8YIi7XMubtGybbvEajsTgMw0u1ukxHb+n7BMx8eBRFmeqzTKeb/N8YMwYAe6WhTWgeIqKdFfTWpE4AsnDhwjn9/f3a5AGXE9GHrEeWktEyFDTz6iHFZyYnJ0/zPG/vjdPiFHEbZruKuAptNsb8XwD4YMope45scnJy6zVr1qzX8NjQOgHI0NDQUBzHkugsdWPmU6MoUserp+4gIbR4e8mbNVNUY1K+7CIAkAyLL2pFACRZKW2i+Vyt4ksQ8XzN3Hmet2h0dHRUw2ND6wQgvu9/EBHlLZG6IeKhYRjemprBgnDRokU7dzqdXylZH5cv7bZuJL7vn4eImz1gFgWQZBUR7+RtNeNtNBpvXL16tWyPC2tBEBzCzHJGTd2Y+UNRFF2emsGS0AlAbG6wOp3OzmNjYw9ZjisVWxAEH2FmVUqcLK4vaT7eFQUQMYiNawci/lkYhlqnwlT2nyIaHBzcqdFoqEDo6ibLCUAsbrDWE5HNNwnVxBhj5LvM0RomZj4piiLVaphscW5FxHdM11eRAPF9/0OIeNl0Omzy/x8Q0TuVPGpyY4ycUTW5mZ3cZDkBiDY/q0TaRVG0SG1lJYMxRmoYatIObXjiiSfmaq8+NSXligRIcqUtgVGzFKa6l4ikBmGhzff91RI5mbYTV3mZnQDEwgfrNiKSjOiFNmOMfGNJncKHma+PouhdGqWS3MOSuf61afiKBEiykl2HiMek0SWheYyI8ope3Gy3xpgfAoCmAJITnyxXAPk5AOyedlLEJSUMQ80kphX9Al1SvOZpJeNniej/aHi056+iAWKM+UsAUGUqnDVr1lZFF/EJguB6ZtZs5e4noj00c2FD6wogctjeMa2CiHhVGIYnpqW3oUvioh/U8CLi+8IwvEbDoz1/FQ2QIAiOY2ZtPMUuRecDCILgSmbWlIL+NRFpPjxrpu0FWlcAeRQAXp1WQ0T8dhiGH0lLb0PXbDbf4nneTzS8iPi2MAxv1/CkubnaWJ4DgBzAzD/WjCGO47e2Wq2fani0tEEQfIuZNQU8f09EWvcgrVrgCiByMBxIqx0ifiMMw79IS29DFwTBe5lZtRo0Go3dVq9enToNkM31ZdEAWbRo0a6dTkdCXVM3RDwuDMPvpWawIAyC4EJm/rSC9SkimqugtyJ1BZBJAOhLqyEinhuG4Rlp6W3ojDGSHV51nthyyy3nrly58qm0/dkUjykaIPvuu+/AM888o03x85dEdEHacdvQBUHwFWY+XcHbJqJ+Bb0VaQ0Qhdm0AFGIdkZaA0RnalcAmZFbLN1UuKGut1g6O7sCyIw9pOumo3jqIAjqQ7rCzK4AMmOveRVz4YS0vubVmdkVQGbsh0LddBRPXX8o1NnYFUC06X4q6WqSxZNXNy3FUVt49NauJsVNx/OSe8hZ8dmJiYm52szsRds3rXzJED979my5MNGUUaidFdMa2JZO624BAE7c3X3f1zruASK+KwzD621tUSZfEATHMPN1Gh1sHDQ18qdoZ7q7uzrlj4uAKcv4CCex8jYP2XQ8NrHftvEv0+my8f9tPA56KmCqqiG3ltnmxUV+gW3IrebByZM2CbmV+BeV67qLbOozPuS24kkbJKOiKjgra9KGPB/8tLIsU/+sJqLhtH3Y0vm+P7OTNlQ57Y8x5ksA8AXl5GZO+6PsLxO5bdofAPgrIlLXNdcqa7P166m0P2IwY4w2cZyTiLGhoaE/juP4n7WTysxnR1Ek4Kp8833/i4h4tlZRz/P+ZHR09F+0fFp6i4jT3koclwBEnXp0w4YN291zzz2SZqewllx9ypd+KXKvaV2ximRYPR6ZmJjYqegr7QULFmw7a9asxzSG78nUo9rQUzGYw9SXtsmrryAiVUZA5YOQmdwYI7mjbEqzuUperU796uoGS4zv5Eu6dGRZ+chJnYqM5Q9KK7k2HXoylGRzVv7Api6Ly0pezgCyePHi7TZs2KDN1L6SiPab7kHI4/82EzXVr8sJSztWyxfSlHgnL6Zk6/0zANg37biEbtasWa9YtWqVdlum6eIFWmcASYyhvlJtt9s7uCgHVpdge+GZcFaCLbH575RPrpOr5xdefkrlMpHbvKW7qYinXNaVXYotY+k1md9KF/EEAGerm9MzSLKCHAUAqtJZLj1ocyoDXVpJtgwl16ZefN1QBvpoIroh05tawex6iyVXqXI9qmlyYNyt1Wpp+TR9vEBrjJFSbHKrlaV9EwDOceWOklzlnmlZam3jcX6UiFTJvG2N1Gw253meJ9lVtDmY57myq/MVRDrUur4LDzN/JIqib9tOhpbP9/1LEfEkLd8m9GuZ+RJE/FZREyrAENsg4ocBYF4WfZn5siiKTs4iQ8Pr+/4pYhsNj6t8vBvr5HQFSbZZ8qb7ssYwzHxTFEVHaniy0vq+vxIR98kqR1bMvIGSJzCSF9CdURSpbpKy2sX3/RsR8QilnLOI6BwlTyZy5wDxfX8hIt6t1DoGgF2LTn+5sU7NZvNVnufdr0luPc2YHkfEFXEc3/bkk09+V5shXjKzz507932e5x3MzAdpC+G8jG6PxXG8e6vVUtWwV87fi8iTtK+SgM/TyGHmvaIoWqPhyUrrHCDJKnIbAMgkp25leND6vr+3LOuplUxPuIGZl4tsRJSz1SOe563t7+9/RERMTk6+Lo5j2TLJFmqe1DBExMOVZQtSaSOyoyi6KxVxTkSWnsUriEiT/T0XbUsBSBAEH2fmi5UjKMX3yff9ExDxSqWuXUHu8gp9yiC2vmGI+IkwDJe5NmwpAGk2mzsm25ctNQMuYxUR/SzfeJqhOaftMls+k2wDpZ6901YKQJJt1vcB4N3K0ZayiiT6vg0AfqTUt6rkBxKRKsN7HgOxXT0A4FoiOjYPHbQySgNIEAQnMvN3tAqX9eYTPQcHB9/caDQEJDto9a4I/e86nc6BY2NjvyhDH9uVGBHfH4ZhKdvc0gBywAEH9D311FOSL0tTI1DmdW1fX9/wyMiI1ocnl2dieHh4bqfT+TYzvycXgY6EiEdCo9E4ZWRkRJvZPRcNh4eHd2i32+KLp/1ec+/AwEDz9ttvb+eiiFJIaQBJti2fBYCvKXWWD4cXRlEk5QtKa8aYvwaAT5amgK7ji4joUzqWfKl9378AEW1qviwhIlXJuDw1LxsgrwQAWUXUW5Y4jvdptVpFXMGmtm/ilvJxANgzNZNbwvsAYJkr95HNDa3ZbC72PO9Oi6HLLqFJRH+w4M2FpVSAJKuIfFWXr+vaVtrBbWNFEwdHAYn8ttcOoiD6hwUYExMTy8bHx6X+eKnNGGNzISM6iz/bWWUqXzpAkjLJsopondbEbscS0bVlGnCq7yS2YQooNmPJYxgChmXtdnuZixiaNArbVNlK5K5j5mYURapCq2l00tCUDhBR1vf9ixFRHi5VK8N5bToFk/DdTwDA0QBQeJHJRB+pv/KDOI4vbrVa49Pp6PL/Ns6poh8zL4uiSOxYaqsEQIIgaDLzHQAwx8IaXyeiJRZ8hbIkvlN/AgAHIuKBALBXzh3ezcxy5fyjJ5988p+1vl056/KS4owxcgEjFzHath4R9w/DUHYWpbZKAEQsYIxRe/lOWa7Me/K0s7do0aKd4zg+iJnFn+jNyXXndin5Jf5aPpL+AhFv8zxvxerVqyXPWGWb7XeuZEDOvXY3Z8jKACT5LiKryN4Ws/6oeLi69vS00PNFLIsXL569YcOGeXEcb99oNMQp8blvBOLA2Ol01nqe9/CsWbPWrlq1aiJrXy75E4/tFZZbzLsGBgb2L+u7x6Z2qgxARLEgCI5kZttwylK8PV0+eN3SlzFG7a290W7gqDAMb6zKWCsFkGSrJZGDEiFn0yp5HrEZSLfyZDh3yJAvIaJTqjT2ygFkaGjojXEcy1ZL65IwZVdnWTmqNJFV0MUY8zkA+KqlLrKl3H90dPRXlvyFsFUOIMkqItd7F2UY8aeJSFxB6ubIAsYYcWX5RobuPklE2hihDN2lY60kQBKQXAUAx6cbxktSHUxEclCsW8EWMMZIdKicO2zb1UR0gi1zkXyVBUiSFkYecGs/p76+vteOjIzIR7S6FWSB4eHh17Tb7f/IIP4+uf52ldZJq2dlAZKsIocCwM3aQW1C/0dE9ERGGTX7S1jAGLMNAPx3RuMcRkRSGqOSrdIAEYsFQXAGM2dN9bKQiKQ+X91ysoAxZgEAZMowgohnhmH4lZxUKkRM5QEio7Yp1/wS1qr0m6qQ2S1IqDEm88ruqrx0VhN0BUCSq99/ktxYGQf8MSLKmlY0owrdzW6M+SgASGrVLO0Bz/PeUbUr3ZcaUFcARBQfGhp6axzHNwHA3CwzAwD1x0RLA2b8CDjV65Oe5x0xOjr6E0s1nLJ1DUCSrdaxEludg4VWMPOSbvPdymHcViIS3yrxzFUl+3upziSWP4oiCaDqitZVABGLBkFwEjNfmoN1H0XEJWVly8hBfyciEq9cAUfm2BZEPDkMw8ucKJ5TJ10HEBm3MUaSJeT1pbzecm3mYcppSzUl/VNElMU7IqdHXiemKwGSbLdOR8RcrgglMlEypVQlfFc3hflTS5isZCCRvL15SGfmM6IoOjcPWa5ldC1AkpUkq8/Wpva+No7jC8vOluL6IZjqL8k+Iql5tBkvX07lSvpYpbVxVwMkOZO8g5lvTTvgNHSymvT3919QVnK6NDrmSSNJ3SYnJz9jmbdqs6og4iFhGMr1fNe2rgdIspIUkTc398I3VXtK8i7Es8n4Ssn/m7eNewIgYpRkeyDRiK/O2Ug9B5SCgfH7OI6P6pVtas8AJNluSXaUqwFgj5xBIuKmgHKly0pXeY5DKjtJTZA8ahpuRq+fI+LxVchGkpfdegogYhRxS+l0Oucj4jF5GWkTOTEzi4fxLfK3qm7aGx285yHiYQBwaPJXVfYsrQ3Ft6rRaJzaDe4jacckdD0HkKnB5+QFPJ0t1yHiLXEc34yIPyWi30zH4OL/xpg3MPNbPM87jJnFsbDQTI/d4JVra/eeBUhyeJeH47wsQVcawyJiCAAjcRz/tK+v719Xr179Xxp+W9pFixa9ot1u/2/P894CAMPMHNjKUvJJcuzTqhzPoRzP/yDvaYAkh3cpWH9+xvBdWztLNd8WM497nndfu90eHxsbe8hWmPANDg7u1NfXNz+O4z0Rcb7cTxSQtTGNilfHcXxq1beYaQbycjQ9D5CpwRtj5KOiZN2wzZaS1dZT/OsFMIj4GCKuB4CnN/kJ3VYb/5h5DjNvlwDCJj1rXrqLHMnwuLSKCRbyHOSUrBkDEBlwElciILHNu1XEHHSTzEs8z1vaawfxegXZxAJJBkcBik2a0256oPPS9S5EXFqljId5DWw6OTNqBdnYGEkuYAGJ/Mretkw3T2X9X7aASwcGBpZWJVeua0PMWIBMGVpKL8RxfBIifrDo61DXk5uhPylec7nneZf10kc/G3vMeIBMGS2pdPUBABCgqGsm2hi/gjxSE/ByZr6i7MpOVbFNDZBNZsIYI4VFBSQCFm2J6qrMq1aPewHgCgFHmQUztUq7oK8Bshkryxll3bp1xzHz4QAgvy1dTIjDPp4BgOWIuHzrrbe+ZqaeMaazdw2Q6Sz0vKfwjo1G4/AELJkTF6ToskiSFQKKTqezvNVq/brIjnpBdg0Q5SwmGT6OEOe/LromvitxrrypzuSim/AaIDp7vYh6aGjo9XEc74+I+zDzvuIJkkFcnqxjiLiSme/0PO+O0dHR3+YpfCbJqgGS42zLAZ+Z9/c8bzEzS1Z68ZXaKccuXkqU+HaJ64pkSV+FiHfUB+38LF4DJD9bvqSkhQsXztliiy3mdzqdPT3Pmy/AQcRtmXl2cvCXvxv/RI4U7dz49wwiTjDz4wkQxhuNxn3PPvvs+Jo1a+RjXt0KskANkIIMW4vtDQvUAOmNeaxHUZAFaoAUZNhabG9YoAZIb8xjPYqCLFADpCDD1mJ7wwI1QHpjHutRFGSBGiAFGbYW2xsWqAHSG/NYj6IgC9QAKciwtdjesEANkN6Yx3oUBVmg6wASBIGU8LolDMPrC7JJLbYACwRBcEQcx0dGUXRyAeILE9lVADHGSCzGbYk1CABuZebrahfuwp6PTIKDINgNAI5kZgkPEG9naQcT0YpMgh0ydxVAgiC4kplP2MQ+kwIURLy+Lsjp8Ml5ma5ktWDmowHgfQAwa2NSRLwqDMMTq6Hp9Fp0DUCkpkWS1e/lRiWu39cx85X1qjL95OdJIasFMx+bgGL3aWTPI6JH8uy/KFldA5AgCE5lZklEnbZJaKm8ra5My1DT6S3g+/7xiCgrxSFpuRHxtDAMJV9y5VvXAMQYc482y0g3TUTln5TNKGiMOU2Syyn1v5eIFih5SiHvCoAEQWBTqPMPiLhfGIb/VoplZ0inzWZzvud5PwOAbTVD7pYCn10BEGPMdwHgOM0EMPNl3XalqBlflWiNMZJT6/1Kna4hItmaVbpVHiBSorjdbquTDiDikWEY3lRp6/eIcsYYqav+fe1w+vr6Xl/1UtuVB4gx5vMAcK7S+CuJaD8lT02ewQLGGKmuZZQiTieiryp5nJJ3A0DGtVVr68O502fouc583z8bEb+o7PnnRCSZXyrbKg0Q3/dmAfnlAAADY0lEQVQPkyyASus9jYh+fThXWi0jeZJQTxLUSYaW1E2yVUZRJFWDK9kqDRBjzD8AgHx8St3qw3lqU+VOaIyRc4icRzTt+0T0Hg2DS9rKAkTy4Xqepy54WR/OXT4+L+4rCIITmfk7Wg3iON6pqnmCKwsQY8yZAPBlpbEjItIeFJVd1OQvZwFjjJRSkKySmnYWEZ2jYXBFW2WAyAe+XTWGqA/nGmsVQ2uMka/q8nVd0x4gIvH8rVyrJECSIps3aK2FiLvXh3Ot1fKlTw7rUh9e1RDxqCoWCa0kQHzfvw4Rj1FZGOC7RHS8kqcmL8ACQRDclNRSSS2dma+PouhdqRkcEVYOIEkt819qx18fzrUWK47e9rDued6bqlaDvXIA8X3/i4h4tnL67ieiPZQ8NXmBFjDGyEvujZoumPnsKIq+pOEpmrZyADHGPAgAb1IO/AtEpL3xUnZRk2ssYIz5GgB8VsMDAL8kol2UPIWSVwogvu+/U0JntSOuD+daixVPb3tYZ+Zjoij6x+I1TNdDpQBijPkBAByVTvUXqG4gIol/rlvFLGCMkQQb2qKnlZrPygBkcHDwzY1G4wGLOT6WiK614KtZCraA7WG90+nsOjY29ouC1UslvjIAMcb8FQCclUrr/0/0GyLaUclTkzu0gDHmYQCYp+zyy0T0BSVPIeRVAsi/WxS8XEpEEi9St4pawPKw/hAR7VyFIVUCILYRaQCwkIgkmUPdKmoB28O6eHFXYetcCYDYfHkFgBXMvKqiz0UvqsUAIM/L1N/UY0TExdrDusQBhWEoGRlLbaUDJEk4dn+pVqg7r6oF9iCiUp+NKgDkK8x8elVnqNarPAsg4rlhGJ5RngbPL5mlNmPMbwDg9aUqUXdeVQv8lojeUKZypQIkCIL3MvM1ZRqg7rvaFkDE48Iw/F5ZWpYKEGPMLZqcrmUZqe63VAvcSkSHlqVBaQBJUlbeV9bA6367xwJxHO/ZarUk/ZPzVhpALEMznRuo7rASFjiPiD5XhiZlAsTGBaEMG9V9lm+BtUS0fRlqlAKQpKbEVWUMuO6zOy0glcWiKLratfalAMQY80OpVed6sHV/XW2B24jo7a5H4BwgxhgpnLLG9UDr/nrCAs5978oAiE0oZk/Mbj2IzBb4OhEtySxFIeD/AefXmJtyUHnhAAAAAElFTkSuQmCC;" vertex="1" parent="1">
          <mxGeometry x="480" y="300" width="76.25" height="76.25" as="geometry" />
        </mxCell>
        <mxCell id="e0pzkqqJAxzMXHmGNhIU-9" style="edgeStyle=orthogonalEdgeStyle;rounded=0;orthogonalLoop=1;jettySize=auto;html=1;entryX=1;entryY=0.5;entryDx=0;entryDy=0;" edge="1" parent="1" source="e0pzkqqJAxzMXHmGNhIU-8" target="e0pzkqqJAxzMXHmGNhIU-3">
          <mxGeometry relative="1" as="geometry">
            <Array as="points">
              <mxPoint x="390" y="205" />
              <mxPoint x="390" y="260" />
            </Array>
          </mxGeometry>
        </mxCell>
        <mxCell id="e0pzkqqJAxzMXHmGNhIU-8" value="路由器" style="shape=image;verticalLabelPosition=bottom;labelBackgroundColor=default;verticalAlign=top;aspect=fixed;imageAspect=0;image=data:image/png,iVBORw0KGgoAAAANSUhEUgAAAMgAAADICAYAAACtWK6eAAAAAXNSR0IArs4c6QAACzZJREFUeF7tnU2oZEcVgOveGZkJgokK2RlczEK7675FBkKEkDiKblyIBhSz0CgiivFnGRCZGRcGtwYSRcQ/Ai5Es3DnTxIFYZDRmdfnjoILFd1lYxDBEeyS+3wzvLy8l6lTU6dS99bXu8c7deqc79TX/V737e7OcYMABI4l0MEGAhA4ngCCcDog8CoEEITjAQEE4QxAII0AjyBp3FjVCAEEaWTQtJlGAEHSuLGqEQII0sigaTONAIKkcWNVIwQQpJFB02YaAQRJ48aqRgggSCODps00AgiSxo1VjRBAkEYGTZtpBBAkjRurGiGAII0MmjbTCCBIGjdWNUIAQRoZNG2mEUCQNG6saoQAgjQyaNpMI4AgadxY1QgBBGlk0LSZRgBB0rixqhECCNLIoGkzjQCCpHFjVSMEEKSRQdNmGgEESePGqkYILEYQ7/1zypm9ICIXlGuaDPfeT5we0jQvIuc08bXGLkmQoIR8EUHiiO0Lcj4u+v9RIrKIs7WIJqaBeO8RRHOCFbEIooBVayiC2E0GQezYFsuMIHaoEcSObbHMCGKHGkHs2BbLjCB2qBHEjm2xzAhihxpB7NgWy4wgdqgRxI5tscwIYocaQezYFsuMIHaoEcSObbHMCGKHGkHs2BbLjCB2qBHEjm2xzAhihxpB7NgWy4wgdqgRxI5tscwIYocaQezYFsuMIHaoEcSObbHMCGKHGkHs2BbLjCB2qBHEjm2xzAhihxpB7NgWy4wgdqgRxI5tscwIYocaQezYFsuMIHaoEcSObbHMCGKHGkHs2BbLjCB2qBHEjm2xzAhihxpB7NgWy4wgdqgRxI5tscwIYocaQezYFsuMIHaoEcSObbHMCGKHGkHs2BbLjCB2qBHEjm2xzAhihxpB7NgWy4wgdqgRxI5tscwIYocaQezYFsuMIHaoEcSObbHMCGKHGkHs2BbLjCB2qBHEjm2xzAhihxpB7NgWy4wgdqgRxI5tscwIYocaQezYFsuMIHaoEcSObbHMCGKHGkHs2BbLjCB2qBHEjm2xzAhihxpB7NgWy4wgdqgRxI5tscwIYocaQezYFsuMIHaoEcSObbHMCGKHGkHs2BbLjCB2qBHEjm2xzAhihxpB7NgWy4wgdqgRxI5tscwIYocaQezYFsuMIHaoEcSObbHMCGKHGkHs2BbLjCB2qBHEjm2xzAhihxpB7NgWy4wgdqgRxI7tXub1ev1E13WPZ9jmeRE5d1SeXIJ479/pnHsuQ61zTHFORJ4/XHhOQbz3E9uJcY7be0XkZzkSHZejs0w+5V6tVvf0ff/XTPsgSCaQx6SZlSAhhEvjON5vicRckPV6/UzXdY9kagJBMoFcgiD7PTwsIj+2wmIqyGq1eqDv+19nLB5BMsI8ItWsHkH2678mImsrLKaCeO8nOR7IWDyCZIS5EEFcCOHRcRy/Z4HGTJBhGB4JITyTuWgEyQz0ULo5PoJMLfxNRO6xQGMmiPf+T865M5mLRpDMQBciyNTG50Xkydx4TAQZhuHxEMITuYt1ziGIAdQDKef6CDK18JKI3JUbT3ZBzp49e+f169enp3XvzF0sghgQfXnKOQsydfIlEflqTkrZBfHeP+Wc+0xkkRcj426GiciFo9bkfKFwu92+VVvXEuL7vv9LgRcKzzvnDp67cOjno1BOa2JuWxF5nXNuGxMcE5NVkGEYhhDCbszGzrkXReTuyNhbhuUS5JYbNRiQ85X0FHzr9frPXddF3WmFEL42jmOOqzb2Ss0qiPf+R865h2MgdF13frPZfCUmNiYGQWIopcW81oIMw/BYCCH6H/BTp07ddfny5ZfSun35qmyCeO/f55z7aWxRJ0+efOOVK1f+ERt/qzgEuRWh9N+/1oI453rv/X8VHTwlIp9VxB8bmlOQF5xzD0YW9SsReSgyNioMQaIwJQVVIMh0wet3uq57NLaBvu/fsru7+/fY+OPisgjivf+0c+7p2GJCCB8Zx/GHsfExcQgSQyktpgZBdnZ27t1ut5cVHfxARD6qiD8yNJcgf3DOvS2ymH+KyBsiY6PDECQalTqwBkGmor33V51zO4oGViIync3k220LMgzDl0MImn+2vyEisU8DRzeGINGo1IEVCfIJ59y3FQ08KyIfUMS/IvS2BNl/r8fvnHNvji3ixIkT9169evX3sfGxcQgSS0ofV4sgZ86cOXX69Ol/azrYbrf3X7t27ZJmzcHY2xJkvV4/2XXdY7Gbd113abPZmLzBBUFip6CPq0WQ/T+zvu6c+1xsF13X/XKz2bw7Nv5wXLIgwzC8I4TwG+XGXxCRqcHsNwTJjvRmwpoEWa1W9/V9r3pE6LruPZvN5ucphJIF8d5Pz0J9WLHpf/q+f9Pu7u6/FGuiQxEkGpU6sCZB9h9FtO8z+q2I3KduPPWV9GEY3h9CeFazYQjhu+M4flyzRhOLIBpautjaBBmG4VMhhG/qunAfFJGfKNekXWoyDMMvQgjv0mx2Ow9zMfsgSAyltJjaBNnZ2Xn9drt90Tl3h6KjP4rI2xXxe6HqP7HW6/Unu677lnKj6fnrLyrXaMO1H9UzXUn8io+40W7aSPz0MT2xV9TeQHLkxzNl5PUhxVXje9uGED42juP3NTWoBUm5N9EURCwEDAlcPO7tEsftiSCG0yB1dQQQpLqRUFBNBBCkpmlQS3UEEKS6kVBQTQQQpKZpUEt1BBCkupFQUE0EEKSmaVBLdQQQpLqRUFBNBBCkpmlQS3UEEKS6kVBQTQQQpKZpUEt1BBCkupFQUE0E6hRERNTXfNVElVrqJFDiLQ7qg5tyNS+C1HnA5l4Vgsx9gtRvSgBBTPGSfO4EEGTuE6R+UwIIYoqX5HMngCBznyD1mxJAEFO8JJ87AQSZ+wSp35QAgpjiJfncCSDI3CdI/aYEEMQUL8nnTgBB5j7BhPr3L+WJWXnz+8W1H4a2oD0mBpobFytqaNUYW+JekT3iJ8/FivGsikRyeOMxl2CFIPHzKBJZYujsET9KBIlnVSSSwxuPuQQrBImfR5HIEkNnj/hRIkg8qyKRHN54zCVYpQgyfZHKhfg2nOMdhfG0Sgy94T0uiMj0xUnRNwSJRlUmMOHwqofOHvGzRJB4VkUiEw6v+sWvhvdQ35kgSJFjH79Jw4e3hOgIEn8U64xMEEQ99Ib3UEvII0hlnjR8eEuIjiCVnXfKMSSQcGeCIIbzIHVlBBCksoFQTl0EEKSueVBNZQQQpLKBUE5dBBIEUT8RwLNYdc2cahQEEgThn3QFX0JnTgBBZj5AyrclgCC2fMk+cwIIMvMBUr4tAQSx5Uv2mRNIEIRnsWY+c8pXEFiMIM451bu4FIyWGnrzQ+GW2mCmvqZ3t2pudT7Nq+mAWAgYEkAQQ7iknj8BBJn/DOnAkACCGMIl9fwJIMj8Z0gHhgQQxBAuqedPoM7XQebPlQ4WQgBBFjJI2rAhwJ9YNlzJuhACCLKQQdKGDQEEseFK1oUQQJCFDJI2bAgUE2R6L/uNC+oOf9Oo5nc3Yicch9fF/E4TExs71XKwt6P6ebVab4xWw+HgGpujQdY9AtpvBFZ/aAOcIdASAQRpadr0qiaAIGpkLGiJAIK0NG16VRNAEDUyFrREAEFamja9qgkgiBoZC1oigCAtTZte1QQQRI2MBS0RQJCWpk2vagIIokbGgpYIIEhL06ZXNQEEUSNjQUsEEKSladOrmgCCqJGxoCUCCNLStOlVTQBB1MhY0BIBBGlp2vSqJoAgamQsaIkAgrQ0bXpVE0AQNTIWtEQAQVqaNr2qCSCIGhkLWiKAIC1Nm17VBBBEjYwFLRFAkJamTa9qAgiiRsaClgj8DwNT6yPQLgzOAAAAAElFTkSuQmCC;" vertex="1" parent="1">
          <mxGeometry x="470" y="150" width="110" height="110" as="geometry" />
        </mxCell>
      </root>
    </mxGraphModel>
  </diagram>
</mxfile>
